<svg height="472pt" viewBox="-3 0 471 472" width="472pt" xmlns="http://www.w3.org/2000/svg"><path d="m317.78125 157.359375c-2.101562 8.398437-5.445312 16.433594-9.921875 23.839844l15.121094 22.722656-22.558594 22.558594-22.722656-15.121094c-7.40625 4.476563-15.441407 7.820313-23.839844 9.921875l-5.359375 26.71875h-32l-5.359375-26.71875c-8.398437-2.101562-16.433594-5.445312-23.839844-9.921875l-22.722656 15.121094-22.558594-22.558594 15.121094-22.722656c-4.476563-7.40625-7.820313-15.441407-9.921875-23.839844l-26.71875-5.359375v-32l26.71875-5.359375c2.101562-8.398437 5.445312-16.433594 9.921875-23.839844l-15.121094-22.722656 22.558594-22.558594 22.722656 15.121094c7.40625-4.476563 15.441407-7.820313 23.839844-9.921875l5.359375-26.71875h32l5.359375 26.71875c8.398437 2.101562 16.433594 5.445312 23.839844 9.921875l22.722656-15.121094 22.558594 22.558594-15.121094 22.722656c4.476563 7.40625 7.820313 15.441407 9.921875 23.839844l26.71875 5.359375v32zm0 0" fill="#ff9811"/><path d="m48.5 280v80h-48zm0 0" fill="#009986"/><path d="m416.5 280 48 80h-240l-48-80zm0 0" fill="#009986"/><path d="m416.5 360v112h-240v-192l48 80zm0 0" fill="#00b39d"/><path d="m176.5 280v192h-128v-192zm0 0" fill="#00ccb3"/><path d="m280.5 136c0 26.507812-21.492188 48-48 48s-48-21.492188-48-48 21.492188-48 48-48 48 21.492188 48 48zm0 0" fill="#ff6243"/><path d="m360.5 432h32v16h-32zm0 0" fill="#009986"/><path d="m328.5 432h16v16h-16zm0 0" fill="#009986"/><g fill="#ff7956"><path d="m400.5 92.6875v-60.6875h-16v60.6875l-10.34375-10.34375-11.3125 11.3125 24 24c3.125 3.121094 8.1875 3.121094 11.3125 0l24-24-11.3125-11.3125zm0 0"/><path d="m384.5 0h16v16h-16zm0 0"/><path d="m80.5 92.6875v-60.6875h-16v60.6875l-10.34375-10.34375-11.3125 11.3125 24 24c3.125 3.121094 8.1875 3.121094 11.3125 0l24-24-11.3125-11.3125zm0 0"/><path d="m64.5 0h16v16h-16zm0 0"/><path d="m64.5 144h16v48h-16zm0 0"/><path d="m64.5 208h16v16h-16zm0 0"/><path d="m64.5 240h16v16h-16zm0 0"/><path d="m16.5 128h16v32h-16zm0 0"/><path d="m16.5 176h16v16h-16zm0 0"/><path d="m16.5 208h16v16h-16zm0 0"/><path d="m384.5 144h16v48h-16zm0 0"/><path d="m384.5 208h16v16h-16zm0 0"/><path d="m384.5 240h16v16h-16zm0 0"/><path d="m432.5 128h16v32h-16zm0 0"/><path d="m432.5 176h16v16h-16zm0 0"/><path d="m432.5 208h16v16h-16zm0 0"/></g></svg>