<svg id="Layer_5" enable-background="new 0 0 64 64" height="512" viewBox="0 0 64 64" width="512" xmlns="http://www.w3.org/2000/svg"><g><g><g><path d="m17 53h-10v-7h10z" fill="#f0bc5e"/></g></g><g><g><path d="m21 43h-6v-5h6z" fill="#f0bc5e"/></g></g><g><g><path d="m27 31h-6v-5h6z" fill="#f0bc5e"/></g></g><g><g><path d="m27 19h-6v-5h6z" fill="#f0bc5e"/></g></g><g><g><path d="m56 47c-1.654 0-3-1.346-3-3v-28c0-1.654 1.346-3 3-3s3 1.346 3 3v28c0 1.654-1.346 3-3 3z" fill="#f0bc5e"/></g></g><g><path d="m48 13c-.771 0-1.468.301-2 .78v32.44c.532.48 1.229.78 2 .78 1.654 0 3-1.346 3-3v-28c0-1.654-1.346-3-3-3z" fill="#f0bc5e"/></g><g><path d="m11 49h2v4h-2z"/><path d="m58 1h-48c-2.757 0-5 2.243-5 5v39h-1c-1.654 0-3 1.346-3 3v12c0 1.654 1.346 3 3 3h16c1.654 0 3-1.346 3-3v-5h35c2.757 0 5-2.243 5-5v-44c0-2.757-2.243-5-5-5zm-11 48v-38h14v38zm-16 0h-4.184c.112-.314.184-.648.184-1v-8c0-.352-.072-.686-.184-1h3.184c.352 0 .686-.072 1-.184zm-11-4h-9v-5c0-.552.449-1 1-1h6 6c.551 0 1 .448 1 1v8c0 .552-.449 1-1 1h-1v-1c0-1.654-1.346-3-3-3zm4-8h-6c-.551 0-1-.448-1-1v-8c0-.551.449-1 1-1h12c.551 0 1 .449 1 1v8c0 .552-.449 1-1 1zm-7-13v-8c0-.551.449-1 1-1h12c.551 0 1 .449 1 1v8c0 .551-.449 1-1 1h-12c-.551 0-1-.449-1-1zm14-10.816c-.314-.112-.648-.184-1-.184h-12c-1.654 0-3 1.346-3 3v8c0 .771.301 1.468.78 2-.48.532-.78 1.229-.78 2v8c0 .352.072.686.184 1h-3.184c-.352 0-.686.072-1 .184v-26.184h20zm2 22.816v-8-4-8-5.246l12-3.429v45.348l-12-3.428zm14-27v-2h14v2zm-37-6h48c1.302 0 2.402.839 2.816 2h-53.632c.414-1.161 1.514-2 2.816-2zm-3 4h31.86l-7 2h-22.86v31 5h-2zm14 53c0 .552-.449 1-1 1h-16c-.551 0-1-.448-1-1v-12c0-.552.449-1 1-1h16c.551 0 1 .448 1 1zm2-9h1 7.861l6.999 2h-15.86zm35 2h-11v-2h13.816c-.414 1.161-1.514 2-2.816 2z"/></g></g></svg>