<svg id="Layer_3" enable-background="new 0 0 64 64" height="512" viewBox="0 0 64 64" width="512" xmlns="http://www.w3.org/2000/svg"><g><path d="m42 20h12v10h-12z" fill="#c18e5c"/><path d="m42 20v8c5.483 0 10.015-3.468 10.85-8z" fill="#cda57d"/><path d="m10 38h44v16h-44z" fill="#c18e5c"/><path d="m10 38v13.732c1.634.173 3.302.268 5 .268 13.501 0 25.209-5.682 31.047-14z" fill="#cda57d"/><g fill="#666e77"><path d="m6 12h52v4h-52z"/><path d="m6 30h52v4h-52z"/><path d="m6 54h52v4h-52z"/></g><path d="m2 2h4v60h-4z" fill="#88929f"/><path d="m58 2h4v60h-4z" fill="#88929f"/><path d="m46 20h4v4h-4z" fill="#e1c9b1"/><path d="m26 20h12v10h-12z" fill="#c18e5c"/><path d="m26 20v8c5.483 0 10.015-3.468 10.85-8z" fill="#cda57d"/><path d="m30 20h4v4h-4z" fill="#e1c9b1"/><path d="m10 20h12v10h-12z" fill="#c18e5c"/><path d="m10 20v8c5.483 0 10.015-3.468 10.85-8z" fill="#cda57d"/><path d="m14 20h4v4h-4z" fill="#e1c9b1"/><path d="m42 2h12v10h-12z" fill="#c18e5c"/><path d="m42 2v8c5.483 0 10.015-3.468 10.85-8z" fill="#cda57d"/><path d="m46 2h4v4h-4z" fill="#e1c9b1"/><path d="m26 2h12v10h-12z" fill="#c18e5c"/><path d="m26 2v8c5.483 0 10.015-3.468 10.85-8z" fill="#cda57d"/><path d="m30 2h4v4h-4z" fill="#e1c9b1"/><path d="m10 2h12v10h-12z" fill="#c18e5c"/><path d="m10 2v8c5.483 0 10.015-3.468 10.85-8z" fill="#cda57d"/><path d="m14 2h4v4h-4z" fill="#e1c9b1"/><path d="m29 38h6v8h-6z" fill="#e1c9b1"/><g><path d="m47 49h4v2h-4z" fill="#e1c9b1"/></g><g><path d="m47 45h4v2h-4z" fill="#e1c9b1"/></g></g></svg>